<?xml version="1.0" encoding="utf-8"?>
<!-- Generator: Adobe Illustrator 21.0.0, SVG Export Plug-In . SVG Version: 6.00 Build 0)  -->
<svg version="1.1" id="Layer_1" xmlns="http://www.w3.org/2000/svg" xmlns:xlink="http://www.w3.org/1999/xlink" x="0px" y="0px"
	 viewBox="0 0 100.9 130.5" style="enable-background:new 0 0 100.9 130.5;" xml:space="preserve">
<style type="text/css">
	.st0{fill:#3D58A6;}
</style>
<g>
	<path class="st0" d="M37.4,129c0.7,0.9,1.8,1.5,3,1.5h48.2c1.6,0,3-1,3.6-2.4c0.1-0.2,1-2.6,1.4-3.6c1-2.8,2-5.8,2.9-9
		c1.5-5.1,2.7-10.1,3.4-14.8c1.6-10.2,1.2-18.4-2.2-24c-3.5-5.8-9.9-10-18.1-13c-4.3-1.5-8.9-2.7-13.4-3.4c-1.6-0.3-2.6-0.4-2.6-0.4
		v-35c0-6.3-5.2-11.5-11.6-11.5h-1.9c-6.4,0-11.6,5.2-11.6,11.5l0,60.6L25.7,74.4C17.5,67.2,6,69.1,0.6,78.6
		c-0.8,1.5-0.7,3.2,0.3,4.4L37.4,129z M9.9,79.4c3.1-2.4,7.3-2.2,10.8,0.8l19.2,16.7c2.5,2.2,6.4,0.4,6.4-2.9V24.9
		c0-2.1,1.7-3.8,3.9-3.8H52c2.1,0,3.9,1.7,3.9,3.8v38.4c0,2,1.6,3.7,3.6,3.8c0.2,0,0.7,0.1,1.4,0.1c1.2,0.1,2.5,0.3,4,0.6
		c4.1,0.7,8.3,1.7,12.1,3.1c6.8,2.4,11.7,5.7,14.2,9.7c2.2,3.6,2.6,10.2,1.2,18.8c-0.7,4.4-1.8,9.1-3.2,13.9c-0.9,3-1.8,5.9-2.8,8.6
		c-0.3,0.9-0.3,0.9-0.3,0.9H42.4L8.7,80.5C8.7,80.5,9.2,79.9,9.9,79.4z"/>
	<path class="st0" d="M76.6,20.7C74.1,8.9,63.6,0,51.1,0c-14.4,0-26,11.6-26,25.9c0,9.6,5.3,18.3,13.6,22.8c1.9,1,4.2,0.3,5.2-1.5
		c1-1.9,0.3-4.2-1.5-5.2c-5.9-3.2-9.6-9.3-9.6-16c0-10.1,8.2-18.2,18.3-18.2s18.3,8.2,18.3,18.2c0,6.7-3.6,12.7-9.4,15.9
		c-1.9,1-2.5,3.4-1.5,5.2c1,1.9,3.4,2.5,5.2,1.5c7.5-4.2,12.4-11.7,13.2-20.2h11.3v3.8c0,1,0.7,1.4,1.6,0.8l10.3-7.4
		c0.9-0.6,0.9-1.6,0-2.2L89.9,16c-0.9-0.6-1.6-0.3-1.6,0.8v3.8H76.6L76.6,20.7z"/>
</g>
</svg>
